# xmcd
#
# Track frame offsets:
#	150
#	27428
#	46853
#	62663
#	82313
#	105983
#	128798
#	142381
#	158919
#	184082
#	198820
#
# Disc length: 3159 seconds
#
# Revision: 1
# Processed by: cddbd v1.5.2PL0 Copyright (c) Steve Scherf et al.
# Submitted via: audiograbber 1.83.01
#
DISCID=980c550b
DTITLE=Riverhead Slide - The Lost Tracks (LIVE)
DYEAR=1900
DGENRE=Blues
TTITLE0=Hoochie Goochie Man
TTITLE1=Sea Of Love
TTITLE2=Slidin' Man
TTITLE3=Born Under A Bad Sign
TTITLE4=Red House
TTITLE5=Dust My Broom
TTITLE6=It Ain't So Bad
TTITLE7=I Put A Spell On You
TTITLE8=It's So Good
TTITLE9=Just The Blues
TTITLE10=Sweet Home Chicago
EXTD=
EXTT0=
EXTT1=
EXTT2=
EXTT3=
EXTT4=
EXTT5=
EXTT6=
EXTT7=
EXTT8=
EXTT9=
EXTT10=
PLAYORDER=
